<svg width="188" height="22" xmlns="http://www.w3.org/2000/svg" fill="none">
 <g>
  <title>Layer 1</title>
  <path d="m24.194,0.68018l7.6105,0c5.7457,0 10.4834,4.51088 10.4834,10.33222c0,5.7961 -4.7629,10.3321 -10.4834,10.3321l-7.6105,0l0,-20.66432zm5.3677,16.10312l1.2096,0c3.2004,0 5.9221,-1.7389 5.9221,-5.7709c0,-3.7045 -2.4445,-5.77094 -5.8717,-5.77094l-1.26,0l0,11.54184z" fill="#0A1F44" id="svg_1" stroke-width="0"/>
  <path d="m47.0261,0.68018l5.2669,0l4.1832,11.03782l4.4353,-11.03782l5.3425,0l3.1249,20.63922l-5.3425,0l-1.5121,-11.89466l-0.0504,0l-4.9645,11.89466l-2.142,0l-4.7377,-11.89466l-0.0504,0l-1.7136,11.89466l-5.3425,0l3.5029,-20.63922z" fill="#0A1F44" id="svg_2" stroke-width="0"/>
  <path d="m77.3173,21.59647l-5.3677,0l0,-20.66432l5.3677,0l0,20.66432z" fill="#0A1F44" id="svg_3" stroke-width="0"/>
  <path d="m102.896,10.6346c0,6.6781 -4.7884,11.3654 -11.4161,11.3654c-6.6277,0 -11.4158,-4.7125 -11.4158,-11.3654c0,-6.24972 5.4685,-10.6346 11.4158,-10.6346c5.9473,0 11.4161,4.38488 11.4161,10.6346zm-17.2374,0.0252c0,3.5533 2.646,6.1741 5.8465,6.1741c3.2256,0 5.8465,-2.5956 5.8465,-6.1741c0,-2.84766 -2.6209,-5.44331 -5.8465,-5.44331c-3.2257,0 -5.8465,2.59565 -5.8465,5.44331z" fill="#0A1F44" id="svg_4" stroke-width="0"/>
  <path d="m116.327,5.99776c-0.982,-0.80641 -2.242,-1.36082 -3.578,-1.36082c-0.983,0 -2.293,0.57961 -2.293,1.71363c0,1.20962 1.436,1.68843 2.369,1.99084l1.36,0.4032c2.873,0.85682 5.091,2.29329 5.091,5.64489c0,2.0665 -0.504,4.1581 -2.142,5.5693c-1.613,1.3608 -3.78,1.9405 -5.872,1.9405c-2.596,0 -5.141,-0.8821 -7.258,-2.3437l2.294,-4.3345c1.335,1.1845 2.923,2.1421 4.763,2.1421c1.26,0 2.595,-0.63 2.595,-2.0665c0,-1.512 -2.117,-2.016 -3.251,-2.3436c-3.377,-0.9576 -5.569,-1.8396 -5.569,-5.82132c0,-4.18327 2.974,-6.93012 7.107,-6.93012c2.091,0 4.636,0.65521 6.451,1.68843l-2.067,4.10767z" fill="#0A1F44" id="svg_5" stroke-width="0"/>
  <path d="m7.91469,17.7409l-1.43643,3.6036l-5.6953,0l7.93814,-20.66432l5.8717,0l7.7869,20.63912l-5.7457,0l-1.3356,-3.6036l-7.38371,0l0,0.0252zm3.72971,-10.68501l-0.0504,0l-2.21769,6.57731l4.46049,0l-2.1924,-6.57731z" fill="#FF8C00" id="svg_6" stroke-width="0"/>
  <path d="m130.48229,21.59647l-5.3677,0l0,-20.66432l5.3677,0l0,20.66432z" fill="#FF8C00" id="svg_7" stroke-width="0"/>
  <path d="m141.31686,5.97452l-15.95029,0l0,-5.29435l15.95029,0l0,5.29435z" fill="#FF8C00" id="svg_8" stroke-width="0"/>
  <path d="m138.29325,13.78549l-12.67472,0l0,-4.79042l12.67472,0l0,4.79042z" fill="#FF8C00" id="svg_9" stroke-width="0"/>
  <path d="m149.37979,21.3445l-5.3677,0l0,-20.66432l5.3677,0l0,20.66432z" fill="#FF8C00" id="svg_10" stroke-width="0"/>
  <path d="m158.19864,21.3445l-13.93458,0l0,-5.29435l13.93458,0l0,5.29435z" fill="#FF8C00" id="svg_11" stroke-width="0"/>
  <path d="m164.74976,21.3445l-5.3677,0l0,-20.66432l5.3677,0l0,20.66432z" fill="#FF8C00" id="svg_12" stroke-width="0"/>
  <path transform="rotate(37.3937 175.765 10.9945)" d="m178.83416,23.64693l-6.13775,0l0,-25.30479l6.13775,0l0,25.30479z" fill="#FF8C00" id="svg_13" stroke-width="0"/>
  <path transform="rotate(-39.5167 176.176 11.3903)" d="m179.04222,24.22455l-5.73233,0l0,-25.66852l5.73233,0l0,25.66852z" fill="#FF8C00" id="svg_14" stroke-width="0"/>
 </g>

</svg>