<svg xmlns="http://www.w3.org/2000/svg" viewBox="0 0 1000 1000" width="1000" height="1000" preserveAspectRatio="xMidYMid meet" style="width: 100%; height: 100%; transform: translate3d(0px, 0px, 0px);"><defs><clipPath id="__lottie_element_2"><rect width="1000" height="1000" x="0" y="0"></rect></clipPath><filter id="__lottie_element_7" filterUnits="objectBoundingBox" x="0%" y="0%" width="100%" height="100%"><feComponentTransfer in="SourceGraphic"><feFuncA type="table" tableValues="1.0 0.0"></feFuncA></feComponentTransfer></filter><mask id="__lottie_element_6" mask-type="alpha"><g filter="url(#__lottie_element_7)"><rect width="1000" height="1000" x="0" y="0" fill="#ffffff" opacity="0"></rect><g clip-path="url(#__lottie_element_8)" transform="matrix(1,0,0,1,0,0)" opacity="1" style="display: block;"><g transform="matrix(-1,0,0,-1,500,850.28369140625)" opacity="1" style="display: block;"><g opacity="1" transform="matrix(1,0,0,1,0,0)"><path fill="rgb(255,139,0)" fill-opacity="1" d=" M176.7760009765625,207.2239990234375 C176.7760009765625,207.2239990234375 -176.77699279785156,207.2239990234375 -176.77699279785156,207.2239990234375 C-193.34500122070312,207.2239990234375 -206.77699279785156,193.79200744628906 -206.77699279785156,177.2239990234375 C-206.77699279785156,160.656005859375 -193.34500122070312,147.2239990234375 -176.77699279785156,147.2239990234375 C-176.77699279785156,147.2239990234375 176.7760009765625,147.2239990234375 176.7760009765625,147.2239990234375 C193.343994140625,147.2239990234375 206.7760009765625,160.656005859375 206.7760009765625,177.2239990234375 C206.7760009765625,193.79200744628906 193.343994140625,207.2239990234375 176.7760009765625,207.2239990234375z"></path><path stroke-linecap="butt" stroke-linejoin="miter" fill-opacity="0" stroke-miterlimit="10" stroke="rgb(255,139,0)" stroke-opacity="1" stroke-width="20" d=" M176.7760009765625,207.2239990234375 C176.7760009765625,207.2239990234375 -176.77699279785156,207.2239990234375 -176.77699279785156,207.2239990234375 C-193.34500122070312,207.2239990234375 -206.77699279785156,193.79200744628906 -206.77699279785156,177.2239990234375 C-206.77699279785156,160.656005859375 -193.34500122070312,147.2239990234375 -176.77699279785156,147.2239990234375 C-176.77699279785156,147.2239990234375 176.7760009765625,147.2239990234375 176.7760009765625,147.2239990234375 C193.343994140625,147.2239990234375 206.7760009765625,160.656005859375 206.7760009765625,177.2239990234375 C206.7760009765625,193.79200744628906 193.343994140625,207.2239990234375 176.7760009765625,207.2239990234375z"></path></g></g><g transform="matrix(-1,0,0,-1,500,500)" opacity="1" style="display: block;"><g opacity="1" transform="matrix(1,0,0,1,0,0)"><path fill="rgb(255,139,0)" fill-opacity="1" d=" M176.7760009765625,29.222999572753906 C176.7760009765625,29.222999572753906 -176.77699279785156,29.222999572753906 -176.77699279785156,29.222999572753906 C-193.34500122070312,29.222999572753906 -206.77699279785156,15.791999816894531 -206.77699279785156,-0.7770000100135803 C-206.77699279785156,-17.344999313354492 -193.34500122070312,-30.777000427246094 -176.77699279785156,-30.777000427246094 C-176.77699279785156,-30.777000427246094 176.7760009765625,-30.777000427246094 176.7760009765625,-30.777000427246094 C193.343994140625,-30.777000427246094 206.7760009765625,-17.344999313354492 206.7760009765625,-0.7770000100135803 C206.7760009765625,15.791999816894531 193.343994140625,29.222999572753906 176.7760009765625,29.222999572753906z"></path><path stroke-linecap="butt" stroke-linejoin="miter" fill-opacity="0" stroke-miterlimit="10" stroke="rgb(255,139,0)" stroke-opacity="1" stroke-width="20" d=" M176.7760009765625,29.222999572753906 C176.7760009765625,29.222999572753906 -176.77699279785156,29.222999572753906 -176.77699279785156,29.222999572753906 C-193.34500122070312,29.222999572753906 -206.77699279785156,15.791999816894531 -206.77699279785156,-0.7770000100135803 C-206.77699279785156,-17.344999313354492 -193.34500122070312,-30.777000427246094 -176.77699279785156,-30.777000427246094 C-176.77699279785156,-30.777000427246094 176.7760009765625,-30.777000427246094 176.7760009765625,-30.777000427246094 C193.343994140625,-30.777000427246094 206.7760009765625,-17.344999313354492 206.7760009765625,-0.7770000100135803 C206.7760009765625,15.791999816894531 193.343994140625,29.222999572753906 176.7760009765625,29.222999572753906z"></path></g></g><g transform="matrix(1,0,0,1,500,674.5227661132812)" opacity="1" style="display: none;"><g opacity="1" transform="matrix(1,0,0,1,0,0)"><path fill="rgb(255,139,0)" fill-opacity="1" d=" M176.7760009765625,-146.77699279785156 C176.7760009765625,-146.77699279785156 -176.77699279785156,-146.77699279785156 -176.77699279785156,-146.77699279785156 C-193.34500122070312,-146.77699279785156 -206.77699279785156,-160.20899963378906 -206.77699279785156,-176.77699279785156 C-206.77699279785156,-193.34500122070312 -193.34500122070312,-206.77699279785156 -176.77699279785156,-206.77699279785156 C-176.77699279785156,-206.77699279785156 176.7760009765625,-206.77699279785156 176.7760009765625,-206.77699279785156 C193.343994140625,-206.77699279785156 206.7760009765625,-193.34500122070312 206.7760009765625,-176.77699279785156 C206.7760009765625,-160.20899963378906 193.343994140625,-146.77699279785156 176.7760009765625,-146.77699279785156z"></path><path stroke-linecap="butt" stroke-linejoin="miter" fill-opacity="0" stroke-miterlimit="10" stroke="rgb(255,139,0)" stroke-opacity="1" stroke-width="20" d=" M176.7760009765625,-146.77699279785156 C176.7760009765625,-146.77699279785156 -176.77699279785156,-146.77699279785156 -176.77699279785156,-146.77699279785156 C-193.34500122070312,-146.77699279785156 -206.77699279785156,-160.20899963378906 -206.77699279785156,-176.77699279785156 C-206.77699279785156,-193.34500122070312 -193.34500122070312,-206.77699279785156 -176.77699279785156,-206.77699279785156 C-176.77699279785156,-206.77699279785156 176.7760009765625,-206.77699279785156 176.7760009765625,-206.77699279785156 C193.343994140625,-206.77699279785156 206.7760009765625,-193.34500122070312 206.7760009765625,-176.77699279785156 C206.7760009765625,-160.20899963378906 193.343994140625,-146.77699279785156 176.7760009765625,-146.77699279785156z"></path></g></g><g style="display: block;" transform="matrix(-1,0,0,-1,500,152.11749267578125)" opacity="1"><g opacity="1" transform="matrix(1,0,0,1,0,0)"><path fill="rgb(255,139,0)" fill-opacity="1" d=" M176.7760009765625,-146.77699279785156 C176.7760009765625,-146.77699279785156 -176.77699279785156,-146.77699279785156 -176.77699279785156,-146.77699279785156 C-193.34500122070312,-146.77699279785156 -206.77699279785156,-160.20899963378906 -206.77699279785156,-176.77699279785156 C-206.77699279785156,-193.34500122070312 -193.34500122070312,-206.77699279785156 -176.77699279785156,-206.77699279785156 C-176.77699279785156,-206.77699279785156 176.7760009765625,-206.77699279785156 176.7760009765625,-206.77699279785156 C193.343994140625,-206.77699279785156 206.7760009765625,-193.34500122070312 206.7760009765625,-176.77699279785156 C206.7760009765625,-160.20899963378906 193.343994140625,-146.77699279785156 176.7760009765625,-146.77699279785156z"></path><path stroke-linecap="butt" stroke-linejoin="miter" fill-opacity="0" stroke-miterlimit="10" stroke="rgb(255,139,0)" stroke-opacity="1" stroke-width="20" d=" M176.7760009765625,-146.77699279785156 C176.7760009765625,-146.77699279785156 -176.77699279785156,-146.77699279785156 -176.77699279785156,-146.77699279785156 C-193.34500122070312,-146.77699279785156 -206.77699279785156,-160.20899963378906 -206.77699279785156,-176.77699279785156 C-206.77699279785156,-193.34500122070312 -193.34500122070312,-206.77699279785156 -176.77699279785156,-206.77699279785156 C-176.77699279785156,-206.77699279785156 176.7760009765625,-206.77699279785156 176.7760009765625,-206.77699279785156 C193.343994140625,-206.77699279785156 206.7760009765625,-193.34500122070312 206.7760009765625,-176.77699279785156 C206.7760009765625,-160.20899963378906 193.343994140625,-146.77699279785156 176.7760009765625,-146.77699279785156z"></path></g></g></g></g></mask><clipPath id="__lottie_element_8"><path d="M0,0 L1000,0 L1000,1000 L0,1000z"></path></clipPath></defs><g clip-path="url(#__lottie_element_2)"><g mask="url(#__lottie_element_6)" style="display: block;"><g transform="matrix(1,0,0,1,500,500)" opacity="1"><g opacity="1" transform="matrix(1,0,0,1,0,0)"><path fill="rgb(255,139,0)" fill-opacity="1" d=" M492.5,0 C492.5,272 272,492.5 0,492.5 C-272,492.5 -492.5,272 -492.5,0 C-492.5,-272 -272,-492.5 0,-492.5 C272,-492.5 492.5,-272 492.5,0z"></path><path stroke-linecap="butt" stroke-linejoin="miter" fill-opacity="0" stroke-miterlimit="10" stroke="rgb(255,139,0)" stroke-opacity="1" stroke-width="10" d=" M492.5,0 C492.5,272 272,492.5 0,492.5 C-272,492.5 -492.5,272 -492.5,0 C-492.5,-272 -272,-492.5 0,-492.5 C272,-492.5 492.5,-272 492.5,0z"></path></g></g></g></g></svg>