<svg xmlns="http://www.w3.org/2000/svg" viewBox="0 0 1000 1000" width="1000" height="1000" preserveAspectRatio="xMidYMid meet" style="width: 100%; height: 100%; transform: translate3d(0px, 0px, 0px);"><defs><clipPath id="__lottie_element_2"><rect width="1000" height="1000" x="0" y="0"></rect></clipPath><filter id="__lottie_element_7" filterUnits="objectBoundingBox" x="0%" y="0%" width="100%" height="100%"><feComponentTransfer in="SourceGraphic"><feFuncA type="table" tableValues="1.0 0.0"></feFuncA></feComponentTransfer></filter><mask id="__lottie_element_6" mask-type="alpha"><g filter="url(#__lottie_element_7)"><rect width="1000" height="1000" x="0" y="0" fill="#ffffff" opacity="0"></rect><g clip-path="url(#__lottie_element_8)" transform="matrix(1,0,0,1,0,0)" opacity="1" style="display: block;"><g transform="matrix(-0.7071067690849304,0.7071067690849304,-0.7071067690849304,-0.7071067690849304,625.3162841796875,624.539306640625)" opacity="1" style="display: block;"><g opacity="1" transform="matrix(1,0,0,1,0,0)"><path fill="rgb(255,139,0)" fill-opacity="1" d=" M253.3470001220703,206.2030029296875 C253.3470001220703,206.2030029296875 -252.06100463867188,206.71200561523438 -252.06100463867188,206.71200561523438 C-268.6289978027344,206.71200561523438 -282.0610046386719,193.27999877929688 -282.0610046386719,176.71200561523438 C-282.0610046386719,160.1439971923828 -268.6289978027344,146.71200561523438 -252.06100463867188,146.71200561523438 C-252.06100463867188,146.71200561523438 253.3470001220703,146.2030029296875 253.3470001220703,146.2030029296875 C269.9150085449219,146.2030029296875 283.34698486328125,159.63499450683594 283.34698486328125,176.2030029296875 C283.34698486328125,192.77099609375 269.9150085449219,206.2030029296875 253.3470001220703,206.2030029296875z"></path><path stroke-linecap="butt" stroke-linejoin="miter" fill-opacity="0" stroke-miterlimit="10" stroke="rgb(255,139,0)" stroke-opacity="1" stroke-width="20" d=" M253.3470001220703,206.2030029296875 C253.3470001220703,206.2030029296875 -252.06100463867188,206.71200561523438 -252.06100463867188,206.71200561523438 C-268.6289978027344,206.71200561523438 -282.0610046386719,193.27999877929688 -282.0610046386719,176.71200561523438 C-282.0610046386719,160.1439971923828 -268.6289978027344,146.71200561523438 -252.06100463867188,146.71200561523438 C-252.06100463867188,146.71200561523438 253.3470001220703,146.2030029296875 253.3470001220703,146.2030029296875 C269.9150085449219,146.2030029296875 283.34698486328125,159.63499450683594 283.34698486328125,176.2030029296875 C283.34698486328125,192.77099609375 269.9150085449219,206.2030029296875 253.3470001220703,206.2030029296875z"></path></g></g><g transform="matrix(-0.7070785164833069,-0.7071350812911987,0.7071350812911987,-0.7070785164833069,500,500)" opacity="1" style="display: block;"><g opacity="1" transform="matrix(1,0,0,1,0,0)"><path fill="rgb(255,139,0)" fill-opacity="1" d=" M250.7760009765625,31.266000747680664 C250.7760009765625,31.266000747680664 -250.5290069580078,29.996999740600586 -250.5290069580078,29.996999740600586 C-267.09698486328125,29.996999740600586 -280.52899169921875,16.56599998474121 -280.52899169921875,-0.003000000026077032 C-280.52899169921875,-16.570999145507812 -267.09698486328125,-30.003000259399414 -250.5290069580078,-30.003000259399414 C-250.5290069580078,-30.003000259399414 250.7760009765625,-28.732999801635742 250.7760009765625,-28.732999801635742 C267.343994140625,-28.732999801635742 280.7749938964844,-15.300999641418457 280.7749938964844,1.2669999599456787 C280.7749938964844,17.836000442504883 267.343994140625,31.266000747680664 250.7760009765625,31.266000747680664z"></path><path stroke-linecap="butt" stroke-linejoin="miter" fill-opacity="0" stroke-miterlimit="10" stroke="rgb(255,139,0)" stroke-opacity="1" stroke-width="20" d=" M250.7760009765625,31.266000747680664 C250.7760009765625,31.266000747680664 -250.5290069580078,29.996999740600586 -250.5290069580078,29.996999740600586 C-267.09698486328125,29.996999740600586 -280.52899169921875,16.56599998474121 -280.52899169921875,-0.003000000026077032 C-280.52899169921875,-16.570999145507812 -267.09698486328125,-30.003000259399414 -250.5290069580078,-30.003000259399414 C-250.5290069580078,-30.003000259399414 250.7760009765625,-28.732999801635742 250.7760009765625,-28.732999801635742 C267.343994140625,-28.732999801635742 280.7749938964844,-15.300999641418457 280.7749938964844,1.2669999599456787 C280.7749938964844,17.836000442504883 267.343994140625,31.266000747680664 250.7760009765625,31.266000747680664z"></path></g></g><g transform="matrix(1,0,0,1,500,674.5227661132812)" opacity="1" style="display: none;"><g opacity="1" transform="matrix(1,0,0,1,0,0)"><path fill="rgb(255,139,0)" fill-opacity="1" d=" M176.7760009765625,-146.77699279785156 C176.7760009765625,-146.77699279785156 -176.77699279785156,-146.77699279785156 -176.77699279785156,-146.77699279785156 C-193.34500122070312,-146.77699279785156 -206.77699279785156,-160.20899963378906 -206.77699279785156,-176.77699279785156 C-206.77699279785156,-193.34500122070312 -193.34500122070312,-206.77699279785156 -176.77699279785156,-206.77699279785156 C-176.77699279785156,-206.77699279785156 176.7760009765625,-206.77699279785156 176.7760009765625,-206.77699279785156 C193.343994140625,-206.77699279785156 206.7760009765625,-193.34500122070312 206.7760009765625,-176.77699279785156 C206.7760009765625,-160.20899963378906 193.343994140625,-146.77699279785156 176.7760009765625,-146.77699279785156z"></path><path stroke-linecap="butt" stroke-linejoin="miter" fill-opacity="0" stroke-miterlimit="10" stroke="rgb(255,139,0)" stroke-opacity="1" stroke-width="20" d=" M176.7760009765625,-146.77699279785156 C176.7760009765625,-146.77699279785156 -176.77699279785156,-146.77699279785156 -176.77699279785156,-146.77699279785156 C-193.34500122070312,-146.77699279785156 -206.77699279785156,-160.20899963378906 -206.77699279785156,-176.77699279785156 C-206.77699279785156,-193.34500122070312 -193.34500122070312,-206.77699279785156 -176.77699279785156,-206.77699279785156 C-176.77699279785156,-206.77699279785156 176.7760009765625,-206.77699279785156 176.7760009765625,-206.77699279785156 C193.343994140625,-206.77699279785156 206.7760009765625,-193.34500122070312 206.7760009765625,-176.77699279785156 C206.7760009765625,-160.20899963378906 193.343994140625,-146.77699279785156 176.7760009765625,-146.77699279785156z"></path></g></g><g style="display: none;" transform="matrix(-1,0,0,-1,500,183.04705810546875)" opacity="1"><g opacity="1" transform="matrix(1,0,0,1,0,0)"><path fill="rgb(255,139,0)" fill-opacity="1" d=" M176.7760009765625,-146.77699279785156 C176.7760009765625,-146.77699279785156 -176.77699279785156,-146.77699279785156 -176.77699279785156,-146.77699279785156 C-193.34500122070312,-146.77699279785156 -206.77699279785156,-160.20899963378906 -206.77699279785156,-176.77699279785156 C-206.77699279785156,-193.34500122070312 -193.34500122070312,-206.77699279785156 -176.77699279785156,-206.77699279785156 C-176.77699279785156,-206.77699279785156 176.7760009765625,-206.77699279785156 176.7760009765625,-206.77699279785156 C193.343994140625,-206.77699279785156 206.7760009765625,-193.34500122070312 206.7760009765625,-176.77699279785156 C206.7760009765625,-160.20899963378906 193.343994140625,-146.77699279785156 176.7760009765625,-146.77699279785156z"></path><path stroke-linecap="butt" stroke-linejoin="miter" fill-opacity="0" stroke-miterlimit="10" stroke="rgb(255,139,0)" stroke-opacity="1" stroke-width="20" d=" M176.7760009765625,-146.77699279785156 C176.7760009765625,-146.77699279785156 -176.77699279785156,-146.77699279785156 -176.77699279785156,-146.77699279785156 C-193.34500122070312,-146.77699279785156 -206.77699279785156,-160.20899963378906 -206.77699279785156,-176.77699279785156 C-206.77699279785156,-193.34500122070312 -193.34500122070312,-206.77699279785156 -176.77699279785156,-206.77699279785156 C-176.77699279785156,-206.77699279785156 176.7760009765625,-206.77699279785156 176.7760009765625,-206.77699279785156 C193.343994140625,-206.77699279785156 206.7760009765625,-193.34500122070312 206.7760009765625,-176.77699279785156 C206.7760009765625,-160.20899963378906 193.343994140625,-146.77699279785156 176.7760009765625,-146.77699279785156z"></path></g></g></g></g></mask><clipPath id="__lottie_element_8"><path d="M0,0 L1000,0 L1000,1000 L0,1000z"></path></clipPath></defs><g clip-path="url(#__lottie_element_2)"><g mask="url(#__lottie_element_6)" style="display: block;"><g transform="matrix(1,0,0,1,500,500)" opacity="1"><g opacity="1" transform="matrix(1,0,0,1,0,0)"><path fill="rgb(255,139,0)" fill-opacity="1" d=" M492.5,0 C492.5,272 272,492.5 0,492.5 C-272,492.5 -492.5,272 -492.5,0 C-492.5,-272 -272,-492.5 0,-492.5 C272,-492.5 492.5,-272 492.5,0z"></path><path stroke-linecap="butt" stroke-linejoin="miter" fill-opacity="0" stroke-miterlimit="10" stroke="rgb(255,139,0)" stroke-opacity="1" stroke-width="10" d=" M492.5,0 C492.5,272 272,492.5 0,492.5 C-272,492.5 -492.5,272 -492.5,0 C-492.5,-272 -272,-492.5 0,-492.5 C272,-492.5 492.5,-272 492.5,0z"></path></g></g></g></g></svg>